<svg width="97" height="96" viewBox="0 0 97 96" fill="none" xmlns="http://www.w3.org/2000/svg">
<path d="M36.8333 80C35.5666 80 34.4333 79.6333 33.4333 78.9C32.4333 78.1667 31.6999 77.2333 31.2333 76.1L22.0333 52H4.83325V44H27.6333L36.8333 68.4L55.2333 19.9C55.6999 18.7667 56.4333 17.8333 57.4333 17.1C58.4333 16.3667 59.5666 16 60.8333 16C62.0999 16 63.2333 16.3667 64.2333 17.1C65.2333 17.8333 65.9666 18.7667 66.4333 19.9L75.6333 44H92.8333V52H70.0333L60.8333 27.6L42.4333 76.1C41.9666 77.2333 41.2333 78.1667 40.2333 78.9C39.2333 79.6333 38.0999 80 36.8333 80Z" fill="black"/>
</svg>
