<svg width="97" height="96" viewBox="0 0 97 96" fill="none" xmlns="http://www.w3.org/2000/svg">
<g clip-path="url(#clip0_1_218)">
<path d="M22.5 70C16.3667 70 11.1667 67.8667 6.9 63.6C2.63333 59.3333 0.5 54.1333 0.5 48C0.5 41.8667 2.63333 36.6667 6.9 32.4C11.1667 28.1333 16.3667 26 22.5 26C24.9667 26 27.3333 26.4333 29.6 27.3C31.8667 28.1667 33.9 29.4 35.7 31L42.5 37.2L36.5 42.6L30.3 37C29.2333 36.0667 28.0333 35.3333 26.7 34.8C25.3667 34.2667 23.9667 34 22.5 34C18.6333 34 15.3333 35.3667 12.6 38.1C9.86667 40.8333 8.5 44.1333 8.5 48C8.5 51.8667 9.86667 55.1667 12.6 57.9C15.3333 60.6333 18.6333 62 22.5 62C23.9667 62 25.3667 61.7333 26.7 61.2C28.0333 60.6667 29.2333 59.9333 30.3 59L61.3 31C63.1 29.4 65.1333 28.1667 67.4 27.3C69.6667 26.4333 72.0333 26 74.5 26C80.6333 26 85.8333 28.1333 90.1 32.4C94.3667 36.6667 96.5 41.8667 96.5 48C96.5 54.1333 94.3667 59.3333 90.1 63.6C85.8333 67.8667 80.6333 70 74.5 70C72.0333 70 69.6667 69.5667 67.4 68.7C65.1333 67.8333 63.1 66.6 61.3 65L54.5 58.8L60.5 53.4L66.7 59C67.7667 59.9333 68.9667 60.6667 70.3 61.2C71.6333 61.7333 73.0333 62 74.5 62C78.3667 62 81.6667 60.6333 84.4 57.9C87.1333 55.1667 88.5 51.8667 88.5 48C88.5 44.1333 87.1333 40.8333 84.4 38.1C81.6667 35.3667 78.3667 34 74.5 34C73.0333 34 71.6333 34.2667 70.3 34.8C68.9667 35.3333 67.7667 36.0667 66.7 37L35.7 65C33.9 66.6 31.8667 67.8333 29.6 68.7C27.3333 69.5667 24.9667 70 22.5 70Z" fill="black"/>
</g>
<defs>
<clipPath id="clip0_1_218">
<rect width="96" height="96" fill="white" transform="translate(0.5)"/>
</clipPath>
</defs>
</svg>
