<svg width="97" height="96" viewBox="0 0 97 96" fill="none" xmlns="http://www.w3.org/2000/svg">
<path d="M48.1667 88C45.9667 88 44.0834 87.2167 42.5167 85.65C40.9501 84.0833 40.1667 82.2 40.1667 80H56.1667C56.1667 82.2 55.3834 84.0833 53.8167 85.65C52.2501 87.2167 50.3667 88 48.1667 88ZM32.1667 76V68H64.1667V76H32.1667ZM33.1667 64C28.5667 61.2667 24.9167 57.6 22.2167 53C19.5167 48.4 18.1667 43.4 18.1667 38C18.1667 29.6667 21.0834 22.5833 26.9167 16.75C32.7501 10.9167 39.8334 8 48.1667 8C56.5001 8 63.5834 10.9167 69.4167 16.75C75.2501 22.5833 78.1667 29.6667 78.1667 38C78.1667 43.4 76.8167 48.4 74.1167 53C71.4167 57.6 67.7668 61.2667 63.1667 64H33.1667ZM35.5667 56H60.7668C63.7668 53.8667 66.0834 51.2333 67.7167 48.1C69.3501 44.9667 70.1667 41.6 70.1667 38C70.1667 31.8667 68.0334 26.6667 63.7668 22.4C59.5001 18.1333 54.3001 16 48.1667 16C42.0334 16 36.8334 18.1333 32.5667 22.4C28.3001 26.6667 26.1667 31.8667 26.1667 38C26.1667 41.6 26.9834 44.9667 28.6167 48.1C30.2501 51.2333 32.5667 53.8667 35.5667 56Z" fill="black"/>
</svg>
